<?xml version="1.0" encoding="utf-8"?>
<!-- Generator: Adobe Illustrator 16.0.0, SVG Export Plug-In . SVG Version: 6.00 Build 0)  -->
<!DOCTYPE svg PUBLIC "-//W3C//DTD SVG 1.1//EN" "http://www.w3.org/Graphics/SVG/1.1/DTD/svg11.dtd">
<svg version="1.1" id="Layer_1" xmlns="http://www.w3.org/2000/svg" xmlns:xlink="http://www.w3.org/1999/xlink" x="0px" y="0px"
	 width="200px" height="55px" viewBox="0 0 200 55" enable-background="new 0 0 200 55" xml:space="preserve">
<g>
	<path fill="#0E5E9C" d="M111.297,0.5H87.466l-3.009,5.211h15.848L81.922,30.385h24.157l3.043-5.235H92.466L111.297,0.5z"/>
	<path fill="#0E5E9C" d="M123.268,0.438l-6.135,3.529v26.455l6.135-3.55V0.438L123.268,0.438z"/>
	<path fill="#0E5E9C" d="M147.295,0.141c-8.816,0-15.973,6.848-15.973,15.311c0,8.463,7.156,15.312,15.973,15.312
		c8.861,0,15.977-6.849,15.977-15.312C163.271,6.989,156.156,0.141,147.295,0.141z M147.295,25.063
		c-5.365,0-9.711-4.295-9.711-9.612c0-5.273,4.344-9.611,9.711-9.611c5.369,0,9.758,4.338,9.758,9.611
		C157.053,20.768,152.664,25.063,147.295,25.063z"/>
	<path fill="#0E5E9C" d="M192.123,4.032v13.042L171.324,0.438v29.984L177.281,27V13.808l21.053,16.614V0.438L192.123,4.032z"/>
</g>
<g>
	<path fill="#999999" d="M85.674,39.402l-2.972,1.721V54.01l2.972-1.723V39.402z"/>
	<path fill="#999999" d="M117.203,41.973l1.482-2.57h-10.963V54.01h2.868v-5.625h5.459l1.5-2.568h-6.959v-3.844H117.203z"/>
	<path fill="#999999" d="M128.863,39.256c-4.273,0-7.742,3.336-7.742,7.459s3.469,7.457,7.742,7.457c4.293,0,7.74-3.334,7.74-7.457
		C136.604,42.594,133.156,39.256,128.863,39.256z M128.863,51.396c-2.602,0-4.707-2.092-4.707-4.682
		c0-2.568,2.105-4.684,4.707-4.684s4.727,2.113,4.727,4.684C133.59,49.305,131.465,51.396,128.863,51.396z"/>
	<path fill="#999999" d="M151.344,39.402h-10.76l-1.479,2.57h4.621v12.039l2.973-1.727V41.973h3.156L151.344,39.402z"/>
	<path fill="#999999" d="M157.83,51.439v-3.131h5.145l1.439-2.484h-6.584v-3.852h6.369l1.494-2.57h-10.734v14.604h9.684l1.482-2.566
		H157.83L157.83,51.439z"/>
	<path fill="#999999" d="M176.947,51.377c-2.541,0-4.629-1.908-4.629-4.662c0-2.797,2.088-4.66,4.629-4.66
		c1.525,0,2.889,0.746,3.715,1.926l2.289-1.949c-1.422-1.697-3.57-2.797-6.004-2.797c-4.234,0-7.68,3.357-7.68,7.48
		c0,4.121,3.444,7.457,7.68,7.457c2.434,0,4.582-1.076,6.004-2.775l-2.289-1.949C179.836,50.629,178.473,51.377,176.947,51.377z"/>
	<path fill="#999999" d="M196.18,41.072v4.742h-6.703v-6.412l-2.869,1.664v12.939l2.869-1.654v-3.99h6.703v5.645l2.896-1.67V39.402
		L196.18,41.072z"/>
	<path fill="#999999" d="M100.295,41.305v6.318l-10.179-8.064v14.539l2.917-1.729v-6.328l10.303,8.059V39.559L100.295,41.305z"/>
</g>
<g>
	<path fill="#0E87C1" d="M0.924,54.01L20.729,9.003h28.125L0.924,54.01z"/>
</g>
<g>
	<path fill="#0E5E9C" d="M74.253,0L54.448,45.01H26.322L74.253,0z"/>
</g>
<g>
	
		<linearGradient id="SVGID_1_" gradientUnits="userSpaceOnUse" x1="43.5879" y1="726.8984" x2="36.5351" y2="716.4424" gradientTransform="matrix(1 0 0 1 0 -691)">
		<stop  offset="0" style="stop-color:#8DC63F;stop-opacity:0.4"/>
		<stop  offset="1" style="stop-color:#8DC63F;stop-opacity:0.6"/>
	</linearGradient>
	<path fill="url(#SVGID_1_)" d="M16.735,54.01L74.253,0L0.924,54.008"/>
</g>
</svg>
